
<svg width="400" height="400" viewBox="0 0 400 400" xmlns="http://www.w3.org/2000/svg">
  <defs>
    <pattern id="circuitPattern" patternUnits="userSpaceOnUse" width="100" height="100">
      <path d="M0 50 L40 50 L40 40 L60 40 L60 60 L40 60 L40 50" stroke="#FF7700" stroke-width="1" fill="none" opacity="0.2"/>
      <path d="M0 20 L20 20 L20 40 L30 40 L30 20 L50 20" stroke="#00AAAA" stroke-width="1" fill="none" opacity="0.2"/>
      <path d="M50 0 L50 20 L70 20 L70 40 L90 40 L90 20 L100 20" stroke="#FF7700" stroke-width="1" fill="none" opacity="0.2"/>
      <path d="M0 80 L20 80 L20 70 L40 70 L40 100" stroke="#00AAAA" stroke-width="1" fill="none" opacity="0.2"/>
      <path d="M60 100 L60 80 L80 80 L80 60 L100 60" stroke="#FF7700" stroke-width="1" fill="none" opacity="0.2"/>
      <circle cx="40" cy="50" r="2" fill="#FF7700" opacity="0.5"/>
      <circle cx="60" cy="40" r="2" fill="#FF7700" opacity="0.5"/>
      <circle cx="20" cy="20" r="2" fill="#00AAAA" opacity="0.5"/>
      <circle cx="30" cy="40" r="2" fill="#00AAAA" opacity="0.5"/>
      <circle cx="50" cy="20" r="2" fill="#FF7700" opacity="0.5"/>
      <circle cx="70" cy="40" r="2" fill="#FF7700" opacity="0.5"/>
      <circle cx="20" cy="80" r="2" fill="#00AAAA" opacity="0.5"/>
      <circle cx="40" cy="70" r="2" fill="#00AAAA" opacity="0.5"/>
      <circle cx="60" cy="80" r="2" fill="#FF7700" opacity="0.5"/>
      <circle cx="80" cy="60" r="2" fill="#FF7700" opacity="0.5"/>
    </pattern>
  </defs>
  <rect width="400" height="400" fill="url(#circuitPattern)" />
</svg>
